<?xml version="1.0" standalone="no"?>
<!DOCTYPE svg PUBLIC "-//W3C//DTD SVG 20010904//EN"
 "http://www.w3.org/TR/2001/REC-SVG-20010904/DTD/svg10.dtd">
<svg version="1.0" xmlns="http://www.w3.org/2000/svg"
 width="360.000000pt" height="80.000000pt" viewBox="0 0 360.000000 80.000000"
 preserveAspectRatio="xMidYMid meet">

<g transform="translate(0.000000,80.000000) scale(0.100000,-0.100000)"
fill="#000000" stroke="none">
<path d="M740 575 c0 -34 1 -35 40 -35 39 0 40 1 40 35 0 34 -1 35 -40 35 -39
0 -40 -1 -40 -35z"/>
<path d="M1884 600 c-33 -13 -54 -50 -54 -96 0 -40 8 -55 81 -146 19 -23 20
-29 8 -44 -10 -12 -25 -15 -60 -12 l-47 5 5 -36 c3 -20 7 -37 8 -39 2 -2 27
-5 56 -8 67 -6 98 9 122 59 25 50 16 85 -39 147 -61 66 -59 95 6 95 l45 -1 -3
37 c-3 28 -9 39 -25 43 -31 8 -78 6 -103 -4z"/>
<path d="M391 593 c0 -5 22 -87 48 -183 l48 -175 52 0 52 0 70 179 c38 98 69
180 69 182 0 2 -20 4 -44 4 l-44 0 -48 -136 -49 -136 -23 99 c-43 186 -36 173
-87 173 -25 0 -45 -3 -44 -7z"/>
<path d="M1148 577 c-33 -8 -38 -13 -38 -38 0 -22 -5 -29 -20 -29 -16 0 -20
-7 -20 -35 0 -24 5 -35 15 -35 12 0 15 -17 15 -94 0 -87 2 -96 22 -110 47 -33
108 -13 108 34 0 23 -5 30 -19 30 -24 0 -31 19 -31 86 0 51 1 54 25 54 22 0
25 4 25 35 0 28 -4 35 -19 35 -16 0 -21 8 -23 38 l-3 38 -37 -9z"/>
<path d="M3271 551 c-6 -10 -27 -84 -47 -165 -28 -110 -34 -150 -25 -159 8 -8
14 -8 22 0 14 14 91 321 84 334 -10 14 -23 11 -34 -10z"/>
<path d="M108 472 c-102 -45 -108 -48 -108 -77 0 -28 6 -32 98 -72 141 -62
132 -60 132 -26 0 28 -5 32 -76 60 -41 16 -76 33 -77 37 -1 5 33 22 76 39 71
28 77 32 77 59 0 15 -3 28 -7 28 -5 0 -56 -22 -115 -48z"/>
<path d="M925 511 c-55 -23 -87 -121 -66 -199 20 -72 65 -101 136 -88 28 6 35
11 35 31 0 13 2 30 5 37 4 11 -3 13 -30 10 -48 -6 -65 11 -65 64 0 54 21 77
67 72 32 -4 33 -3 33 33 0 30 -4 38 -22 43 -31 8 -69 7 -93 -3z"/>
<path d="M1340 513 c-31 -11 -71 -59 -81 -97 -27 -99 33 -196 122 -196 36 0
84 29 104 62 24 42 25 131 1 176 -25 47 -95 74 -146 55z m68 -85 c18 -18 15
-94 -4 -112 -33 -34 -64 -11 -64 47 0 66 34 99 68 65z"/>
<path d="M1637 503 c-11 -11 -17 -13 -17 -5 0 7 -15 12 -40 12 l-40 0 0 -48
c0 -27 -3 -90 -6 -140 l-7 -92 42 0 41 0 0 58 c0 90 15 132 51 139 27 5 29 9
29 49 0 36 -3 44 -18 44 -10 0 -25 -8 -35 -17z"/>
<path d="M2140 513 c-31 -11 -71 -59 -81 -97 -27 -99 33 -196 122 -196 36 0
84 29 104 62 24 42 25 131 1 176 -25 47 -95 74 -146 55z m68 -85 c18 -18 15
-94 -4 -112 -33 -34 -64 -11 -64 47 0 66 34 99 68 65z"/>
<path d="M2895 511 c-23 -5 -31 -12 -33 -32 -3 -25 -2 -26 53 -21 55 4 57 4
53 -18 -2 -18 -15 -27 -52 -40 -58 -19 -86 -50 -86 -97 0 -43 37 -83 78 -83
43 0 61 53 22 63 -26 7 -25 32 2 51 39 27 45 20 40 -44 l-4 -60 39 0 40 0 7
114 c5 79 4 121 -4 136 -19 36 -77 48 -155 31z"/>
<path d="M3340 491 c0 -27 5 -31 73 -56 39 -15 76 -31 80 -35 5 -4 -28 -22
-72 -40 -75 -30 -81 -34 -81 -61 0 -16 2 -29 4 -29 2 0 53 22 112 48 102 46
109 50 109 77 0 27 -7 32 -105 76 -58 26 -108 48 -112 48 -5 1 -8 -12 -8 -28z"/>
<path d="M740 453 c0 -32 -3 -95 -7 -140 l-6 -83 47 0 46 0 0 140 0 140 -40 0
-40 0 0 -57z"/>
<path d="M2340 473 c0 -21 -3 -75 -6 -120 -7 -78 -6 -82 19 -107 29 -29 59
-33 100 -12 15 8 27 11 27 5 0 -5 17 -9 39 -9 l38 0 6 68 c4 37 7 100 7 140
l0 72 -40 0 -40 0 -1 -67 c-1 -82 -9 -113 -31 -127 -33 -20 -43 7 -40 104 l3
90 -40 0 c-41 0 -41 0 -41 -37z"/>
<path d="M2620 491 c0 -11 -3 -26 -6 -35 -4 -12 4 -15 40 -18 l45 -3 -49 -65
c-39 -51 -50 -73 -50 -102 l0 -38 95 0 95 0 0 34 c0 34 -1 35 -45 38 l-45 3
45 57 c33 41 47 68 51 102 l7 46 -92 0 c-83 0 -91 -2 -91 -19z"/>
</g>
</svg>
